<?xml version="1.0" encoding="UTF-8" standalone="no"?>
<!-- Created with Inkscape (http://www.inkscape.org/) -->

<svg
   xmlns:dc="http://purl.org/dc/elements/1.1/"
   xmlns:cc="http://creativecommons.org/ns#"
   xmlns:rdf="http://www.w3.org/1999/02/22-rdf-syntax-ns#"
   xmlns:svg="http://www.w3.org/2000/svg"
   xmlns="http://www.w3.org/2000/svg"
   xmlns:sodipodi="http://sodipodi.sourceforge.net/DTD/sodipodi-0.dtd"
   xmlns:inkscape="http://www.inkscape.org/namespaces/inkscape"
   width="95"
   height="95"
   viewBox="0 0 95.000001 95.000002"
   id="svg3378"
   version="1.1"
   inkscape:version="0.91 r13725"
   sodipodi:docname="offline.svg">
  <defs
     id="defs3380" />
  <sodipodi:namedview
     id="base"
     pagecolor="#ffffff"
     bordercolor="#666666"
     borderopacity="1.0"
     inkscape:pageopacity="0.0"
     inkscape:pageshadow="2"
     inkscape:zoom="2.8"
     inkscape:cx="244.18921"
     inkscape:cy="-108.94434"
     inkscape:document-units="px"
     inkscape:current-layer="layer1"
     showgrid="false"
     units="px"
     showborder="false"
     fit-margin-top="0"
     fit-margin-left="0"
     fit-margin-right="0"
     fit-margin-bottom="0"
     inkscape:window-width="3200"
     inkscape:window-height="1755"
     inkscape:window-x="0"
     inkscape:window-y="45"
     inkscape:window-maximized="1" />
  <metadata
     id="metadata3383">
    <rdf:RDF>
      <cc:Work
         rdf:about="">
        <dc:format>image/svg+xml</dc:format>
        <dc:type
           rdf:resource="http://purl.org/dc/dcmitype/StillImage" />
        <dc:title></dc:title>
      </cc:Work>
    </rdf:RDF>
  </metadata>
  <g
     inkscape:label="Layer 1"
     inkscape:groupmode="layer"
     id="layer1"
     transform="translate(-5.3571282,-4.1479526)">
    <path
       inkscape:connector-curvature="0"
       d="m 88.857128,20.647953 10.2,-10.2 c 1.400002,-1.4000004 1.400002,-3.6000004 0,-5.0000004 -1.4,-1.4 -3.6,-1.4 -5,0 L 6.6571282,92.847953 c -1.4,1.4 -1.4,3.6 0,5 0.7,0.7 1.6,1 2.5,1 0.8999998,0 1.7999998,-0.3 2.4999998,-1 l 10.2,-10.2 c 8.3,7.2 19.2,11.5 31,11.5 26.2,0 47.500002,-21.3 47.500002,-47.5 0,-11.8 -4.400002,-22.7 -11.500002,-31 z m -0.5,11.6 -11.2,0 6.7,-6.6 c 1.7,2.1 3.2,4.3 4.5,6.6 z m -18.5,19.4 c 0,4.4 -0.3,8.5 -0.8,12.3 l -23.5,0 23.6,-23.6 c 0.4,3.5 0.7,7.3 0.7,11.3 z m -43,31 5.6,-5.6 c 1.5,4.7 3.4,8.9 5.6,12.2 -4.1,-1.6 -7.9,-3.9 -11.2,-6.6 z m 26,9.5 c -5.6,0 -11.6,-8 -14.7,-20.8 l 0.4,-0.4 29.2,0 c -3.2,13.1 -9.3,21.2 -14.9,21.2 z m 14.8,-2.9 c 3.1,-4.8 5.6,-11 7.2,-18.3 l 13.5,0 c -4.5,8.3 -11.8,14.8 -20.7,18.3 z m 8.5,-25.3 c 0.5,-3.9 0.8,-8 0.8,-12.3 0,-4.3 -0.3,-8.4 -0.8,-12.3 l 15.3,0 c 1.2,3.9 1.9,8 1.9,12.3 0,4.3 -0.7,8.4 -1.9,12.3 l -15.3,0 z"
       id="path4"
       style="color:#000000;clip-rule:nonzero;display:inline;overflow:visible;visibility:visible;opacity:1;isolation:auto;mix-blend-mode:normal;color-interpolation:sRGB;color-interpolation-filters:linearRGB;solid-color:#000000;solid-opacity:1;fill:#000000;fill-opacity:1;fill-rule:nonzero;stroke-width:1;stroke-linecap:butt;stroke-linejoin:miter;stroke-miterlimit:4;stroke-dasharray:none;stroke-dashoffset:0;stroke-opacity:1;color-rendering:auto;image-rendering:auto;shape-rendering:auto;text-rendering:auto;enable-background:accumulate" />
    <path
       inkscape:connector-curvature="0"
       d="m 18.757128,73.347953 c -0.5,-0.8 -1,-1.5 -1.4,-2.3 l 3.7,0 7,-7 -13.7,0 c -1.2,-3.9 -1.9,-8 -1.9,-12.3 0,-4.3 0.7,-8.4 1.9,-12.3 l 15.3,0 c -0.5,3.9 -0.8,8 -0.8,12.3 0,3.8 0.2,7.5 0.6,11 l 6.5,-6.5 c -0.1,-1.6 -0.1,-3.1 -0.1,-4.6 0,-4.4 0.3,-8.5 0.8,-12.3 l 16,0 7,-7 -21.6,0 c 3.1,-13 9.2,-21.1 14.8,-21.1 4.7,0 9.7,5.6 13,15 l 5.4,-5.4 c -1.1,-2.5 -2.3,-4.8 -3.6,-6.8 2.4,0.9 4.7,2.1 6.9,3.5 l 5.1,-5.1 c -7.7,-5.2000004 -16.9,-8.3000004 -26.8,-8.3000004 -26.2,0 -47.4999998,21.3000004 -47.4999998,47.5000004 0,9.9 3.1,19.1 8.2999998,26.8 l 5.1,-5.1 z m 19.3,-59.3 c -3.1,4.8 -5.6,11 -7.2,18.3 l -13.5,0 c 4.5,-8.3 11.8,-14.8 20.7,-18.3 z"
       id="path6"
       style="color:#000000;clip-rule:nonzero;display:inline;overflow:visible;visibility:visible;opacity:1;isolation:auto;mix-blend-mode:normal;color-interpolation:sRGB;color-interpolation-filters:linearRGB;solid-color:#000000;solid-opacity:1;fill:#000000;fill-opacity:1;fill-rule:nonzero;stroke-width:1;stroke-linecap:butt;stroke-linejoin:miter;stroke-miterlimit:4;stroke-dasharray:none;stroke-dashoffset:0;stroke-opacity:1;color-rendering:auto;image-rendering:auto;shape-rendering:auto;text-rendering:auto;enable-background:accumulate" />
  </g>
</svg>
