<svg xmlns="http://www.w3.org/2000/svg" width="95" height="95" viewBox="0 0 95.000001 95.000002"><g color="#000"><path d="M83.5 16.5L93.7 6.3a3.5 3.5 0 0 0 0-5 3.5 3.5 0 0 0-5 0L1.3 88.7a3.5 3.5 0 0 0 0 5c.7.7 1.6 1 2.5 1 .9 0 1.8-.3 2.5-1l10.2-10.2c8.3 7.2 19.2 11.5 31 11.5C73.7 95 95 73.7 95 47.5c0-11.8-4.4-22.7-11.5-31zM83 28.1H71.8l6.7-6.6c1.7 2.1 3.2 4.3 4.5 6.6zM64.5 47.5c0 4.4-.3 8.5-.8 12.3H40.2l23.6-23.6c.4 3.5.7 7.3.7 11.3zm-43 31l5.6-5.6c1.5 4.7 3.4 8.9 5.6 12.2-4.1-1.6-7.9-3.9-11.2-6.6zm26 9.5c-5.6 0-11.6-8-14.7-20.8l.4-.4h29.2C59.2 79.9 53.1 88 47.5 88zm14.8-2.9c3.1-4.8 5.6-11 7.2-18.3H83c-4.5 8.3-11.8 14.8-20.7 18.3zm8.5-25.3c.5-3.9.8-8 .8-12.3 0-4.3-.3-8.4-.8-12.3h15.3c1.2 3.9 1.9 8 1.9 12.3 0 4.3-.7 8.4-1.9 12.3H70.8zM13.4 69.2c-.5-.8-1-1.5-1.4-2.3h3.7l7-7H9c-1.2-3.9-1.9-8-1.9-12.3 0-4.3.7-8.4 1.9-12.3h15.3c-.5 3.9-.8 8-.8 12.3 0 3.8.2 7.5.6 11l6.5-6.5c-.1-1.6-.1-3.1-.1-4.6 0-4.4.3-8.5.8-12.3h16l7-7H32.7c3.1-13 9.2-21.1 14.8-21.1 4.7 0 9.7 5.6 13 15l5.4-5.4c-1.1-2.5-2.3-4.8-3.6-6.8 2.4.9 4.7 2.1 6.9 3.5l5.1-5.1C66.6 3.1 57.4 0 47.5 0 21.3 0 0 21.3 0 47.5c0 9.9 3.1 19.1 8.3 26.8l5.1-5.1zM32.7 9.9c-3.1 4.8-5.6 11-7.2 18.3H12c4.5-8.3 11.8-14.8 20.7-18.3z" style="isolation:auto;mix-blend-mode:normal" overflow="visible"/></g></svg>