<?xml version="1.0" encoding="UTF-8" standalone="no"?>
<svg
   xmlns:dc="http://purl.org/dc/elements/1.1/"
   xmlns:cc="http://creativecommons.org/ns#"
   xmlns:rdf="http://www.w3.org/1999/02/22-rdf-syntax-ns#"
   xmlns:svg="http://www.w3.org/2000/svg"
   xmlns="http://www.w3.org/2000/svg"
   xmlns:sodipodi="http://sodipodi.sourceforge.net/DTD/sodipodi-0.dtd"
   xmlns:inkscape="http://www.inkscape.org/namespaces/inkscape"
   version="1.1"
   x="0px"
   y="0px"
   viewBox="206 206 96.592003 75.549004"
   enable-background="new 206 206 100 100"
   xml:space="preserve"
   id="svg2"
   inkscape:version="0.91 r13725"
   sodipodi:docname="no-image.svg"
   width="96.592003"
   height="75.549004"><metadata
     id="metadata28"><rdf:RDF><cc:Work
         rdf:about=""><dc:format>image/svg+xml</dc:format><dc:type
           rdf:resource="http://purl.org/dc/dcmitype/StillImage" /><dc:title></dc:title></cc:Work></rdf:RDF></metadata><defs
     id="defs26" /><sodipodi:namedview
     pagecolor="#ffffff"
     bordercolor="#666666"
     borderopacity="1"
     objecttolerance="10"
     gridtolerance="10"
     guidetolerance="10"
     inkscape:pageopacity="0"
     inkscape:pageshadow="2"
     inkscape:window-width="2279"
     inkscape:window-height="1286"
     id="namedview24"
     showgrid="false"
     fit-margin-top="0"
     fit-margin-left="0"
     fit-margin-right="0"
     fit-margin-bottom="0"
     inkscape:zoom="10.680141"
     inkscape:cx="48.134922"
     inkscape:cy="31.169095"
     inkscape:window-x="19"
     inkscape:window-y="64"
     inkscape:window-maximized="0"
     inkscape:current-layer="svg2" /><polygon
     points="259.394,266.377 259.475,266.296 259.394,266.233 "
     id="polygon4"
     transform="translate(-1,-13.451)" /><polygon
     points="301.312,223.029 218.156,223.029 229.315,231.536 292.804,231.536 292.804,279.937 301.312,286.422 "
     id="polygon6"
     transform="translate(-1,-13.451)" /><path
     d="m 258.394,252.926 0,-0.144 -3.789,-2.889 0,10.791 5.371,0 c 2.34,0 4.521,-0.68 6.358,-1.85 l -7.859,-5.99 -0.081,0.082 z"
     id="path8"
     inkscape:connector-curvature="0" /><polygon
     points="213.687,289.173 289.483,289.173 278.325,280.665 222.194,280.665 222.194,237.875 213.687,231.389 "
     id="polygon10"
     transform="translate(-1,-13.451)" /><path
     d="m 241.155,248.818 c 0,5.868 4.259,10.738 9.855,11.694 l 0,-11.166 -9.383,-9.346 -0.472,-0.36 0,9.178 z"
     id="path12"
     inkscape:connector-curvature="0" /><path
     d="m 265.651,224.614 -4.951,5.443 -4.269,-5.443 -3.991,5.443 -5.093,-5.443 c -0.981,1.811 -1.609,4.236 -1.636,6.732 l 14.41,10.985 c 8.206,-2.722 8.357,-12.502 5.53,-17.717 z"
     id="path14"
     inkscape:connector-curvature="0" /><path
     d="m 271.843,248.818 0,-9.287 -6.676,6.649 6.455,4.919 c 0.143,-0.738 0.221,-1.501 0.221,-2.281 z"
     id="path16"
     inkscape:connector-curvature="0" /><polygon
     points="264.875,260.917 259.394,256.739 246.879,247.199 226.333,231.536 215.174,223.029 210.481,219.451 207,224.019 213.687,229.115 222.194,235.601 255.604,261.071 259.394,263.96 260.768,265.008 268.835,271.158 281.307,280.665 292.467,289.173 300.11,295 303.592,290.435 301.312,288.695 290.779,280.665 272.095,266.421 "
     id="polygon18"
     transform="translate(-1,-13.451)" /></svg>