<svg xmlns="http://www.w3.org/2000/svg" viewBox="206 206 96.592003 75.549004" width="96.592" height="75.549"><path d="M258.394 252.926l.08-.08-.08-.064zM300.312 209.578h-83.156l11.16 8.507h63.488v48.4l8.508 6.486z"/><path d="M258.394 252.926v-.144l-3.79-2.89v10.792h5.372c2.34 0 4.52-.68 6.358-1.85l-7.86-5.99-.08.082z"/><path d="M212.687 275.722h75.796l-11.158-8.508h-56.13v-42.79l-8.508-6.486z"/><path d="M241.155 248.818c0 5.868 4.26 10.738 9.855 11.694v-11.166L241.627 240l-.472-.36v9.178zM265.65 224.614l-4.95 5.443-4.27-5.443-3.99 5.443-5.093-5.443c-.98 1.81-1.61 4.236-1.636 6.732l14.41 10.985c8.207-2.72 8.358-12.5 5.53-17.716zM271.843 248.818v-9.287l-6.676 6.65 6.455 4.92c.143-.74.22-1.502.22-2.282zM263.875 247.466l-5.48-4.178-12.516-9.54-20.547-15.663-11.16-8.507-4.692-3.578-3.48 4.568 6.687 5.096 8.507 6.486 33.41 25.47 3.79 2.89 1.374 1.047 8.067 6.15 12.472 9.507 11.16 8.508 7.643 5.827 3.482-4.566-2.28-1.74-10.533-8.03-18.685-14.244z"/></svg>